<?xml version="1.0" standalone="no"?>
<!DOCTYPE svg PUBLIC "-//W3C//DTD SVG 20010904//EN"
 "http://www.w3.org/TR/2001/REC-SVG-20010904/DTD/svg10.dtd">
<svg version="1.0" xmlns="http://www.w3.org/2000/svg"
 width="512.000000pt" height="512.000000pt" viewBox="0 0 512.000000 512.000000"
 preserveAspectRatio="xMidYMid meet">

<g transform="translate(0.000000,512.000000) scale(0.100000,-0.100000)"
fill="#000000" stroke="none">
<path d="M2182 4600 c-45 -19 -52 -60 -52 -319 l0 -240 -57 -15 c-317 -88
-638 -291 -859 -544 -419 -479 -553 -1140 -354 -1745 42 -127 157 -353 238
-467 77 -108 225 -267 327 -350 643 -525 1552 -544 2214 -44 118 88 294 269
379 389 118 166 210 357 262 542 55 196 64 269 64 503 0 194 -3 227 -27 341
-63 296 -202 588 -379 792 l-51 59 167 167 c218 220 217 194 23 388 -128 128
-146 143 -177 143 -30 0 -52 -18 -219 -183 l-186 -184 -131 67 c-71 36 -185
84 -252 105 l-121 40 -3 257 c-3 253 -3 258 -26 280 l-23 23 -367 2 c-211 1
-377 -2 -390 -7z m636 -343 l2 -178 -107 8 c-135 10 -171 10 -305 0 l-108 -8
0 174 c0 96 3 177 7 181 4 3 119 5 257 4 l251 -3 3 -178z m1145 -325 l57 -57
-124 -124 c-87 -87 -128 -121 -137 -115 -8 4 -38 28 -67 53 l-52 45 127 128
c70 70 130 128 133 128 3 0 31 -26 63 -58z m-1256 -16 c371 -22 781 -224 1047
-518 261 -289 407 -642 423 -1028 19 -461 -145 -880 -476 -1211 -282 -282
-608 -433 -1013 -470 -360 -33 -758 75 -1058 289 -651 463 -873 1313 -530
2027 218 452 635 779 1129 885 96 21 291 39 356 33 17 -1 71 -5 122 -7z"/>
<path d="M2398 3660 c-492 -62 -913 -384 -1101 -840 -118 -286 -132 -639 -36
-933 116 -354 367 -643 702 -807 311 -152 648 -181 982 -85 112 32 327 138
420 207 39 28 113 95 166 149 278 279 416 657 388 1060 -42 604 -503 1118
-1104 1235 -96 18 -324 26 -417 14z m395 -185 c237 -49 442 -160 612 -330 144
-145 258 -342 311 -540 35 -134 44 -363 20 -504 -124 -714 -857 -1156 -1543
-932 -411 134 -717 476 -802 898 -25 123 -28 320 -6 444 88 508 507 909 1020
978 95 13 293 6 388 -14z"/>
<path d="M3208 2976 c-15 -8 -116 -92 -225 -188 -109 -95 -206 -179 -215 -186
-14 -11 -23 -10 -56 7 -85 43 -219 43 -304 0 -62 -32 -125 -95 -155 -158 -24
-49 -28 -68 -28 -146 0 -71 5 -100 22 -137 68 -149 239 -233 391 -194 192 49
299 231 247 422 -10 36 -16 66 -14 68 2 2 101 88 219 191 118 102 221 198 228
211 20 37 6 82 -31 105 -38 23 -44 23 -79 5z m-557 -529 c95 -64 105 -198 20
-270 -144 -121 -350 45 -258 208 33 59 78 85 147 85 43 0 65 -6 91 -23z"/>
</g>
</svg>
